<?xml version="1.0" standalone="no"?>
<!DOCTYPE svg PUBLIC "-//W3C//DTD SVG 20010904//EN"
 "http://www.w3.org/TR/2001/REC-SVG-20010904/DTD/svg10.dtd">
<svg version="1.0" xmlns="http://www.w3.org/2000/svg"
 width="500.000000pt" height="500.000000pt" viewBox="0 0 500.000000 500.000000"
 preserveAspectRatio="xMidYMid meet">

<g transform="translate(0.000000,500.000000) scale(0.100000,-0.100000)"
fill="#000000" stroke="none">
<path d="M1670 4010 c-222 -27 -413 -185 -483 -400 -42 -129 -42 -120 -42
-1020 0 -914 0 -917 47 -1044 59 -163 236 -334 398 -384 50 -15 132 -17 900
-17 792 0 849 1 905 18 220 68 380 240 432 466 13 55 16 194 20 831 5 826 -1
1033 -36 1133 -70 201 -208 336 -411 403 -51 17 -112 18 -860 20 -443 1 -834
-2 -870 -6z m1125 -300 c34 -13 447 -425 471 -470 16 -31 18 -57 16 -245 -2
-205 2 -239 30 -241 7 0 23 -2 35 -2 12 -1 35 -14 52 -28 l31 -26 0 -564 c0
-452 -3 -571 -14 -597 -17 -42 -76 -93 -123 -107 -27 -8 -273 -10 -814 -8
l-775 3 -43 28 c-30 20 -50 44 -67 82 l-24 53 2 555 c3 531 4 556 22 576 11
12 33 25 50 29 l31 8 5 445 c5 485 4 474 65 504 25 12 107 15 527 15 306 0
507 -4 523 -10z"/>
<path d="M1977 3283 c-4 -3 -7 -33 -7 -65 l0 -58 48 0 c35 0 54 5 65 18 25 28
21 67 -9 91 -26 20 -83 28 -97 14z m74 -23 c24 -13 26 -65 3 -74 -42 -16 -54
-8 -54 39 0 48 11 56 51 35z"/>
<path d="M2130 3240 c-24 -24 -24 -29 -4 -58 17 -24 62 -30 82 -10 19 19 14
55 -10 72 -30 21 -44 20 -68 -4z m59 -14 c9 -11 10 -20 1 -35 -9 -17 -15 -19
-30 -11 -22 12 -27 46 -7 53 20 9 24 8 36 -7z"/>
<path d="M2263 3248 c-17 -8 -23 -20 -23 -45 0 -45 39 -63 79 -37 16 11 21 19
13 22 -7 2 -19 -2 -27 -8 -18 -15 -45 3 -45 30 0 21 20 31 49 23 12 -3 21 -1
21 6 0 6 -4 11 -9 11 -5 0 -15 2 -23 4 -7 3 -23 0 -35 -6z"/>
<path d="M2362 3208 l3 -43 43 -1 42 -2 0 44 c0 24 -4 44 -9 44 -11 0 -21 -25
-21 -51 0 -12 -7 -19 -20 -19 -16 0 -20 7 -20 35 0 19 -5 35 -11 35 -6 0 -9
-17 -7 -42z"/>
<path d="M2480 3205 c0 -25 5 -45 10 -45 6 0 10 15 10 34 0 20 6 36 14 39 20
8 26 -2 26 -40 0 -18 5 -33 10 -33 6 0 10 9 10 21 0 28 19 61 31 54 5 -4 9
-22 9 -41 0 -19 5 -34 11 -34 6 0 9 17 7 43 l-3 42 -67 3 -68 3 0 -46z"/>
<path d="M2655 3230 c-15 -17 -16 -24 -7 -45 9 -20 19 -25 46 -25 19 0 38 5
41 11 11 17 -2 22 -25 9 -17 -9 -25 -9 -33 -1 -17 17 10 31 45 24 31 -6 37 7
12 31 -21 22 -57 20 -79 -4z m60 0 c4 -6 -6 -10 -22 -10 -22 0 -25 2 -13 10
19 12 27 12 35 0z"/>
</g>
</svg>
